<?xml version="1.0" encoding="UTF-8"?>
<svg width="28px" height="41px" viewBox="0 0 28 41" version="1.1" xmlns="http://www.w3.org/2000/svg" xmlns:xlink="http://www.w3.org/1999/xlink">
    <!-- Generator: Sketch 43.2 (39069) - http://www.bohemiancoding.com/sketch -->
    <title>Path</title>
    <desc>Created with Sketch.</desc>
    <defs></defs>
    <g id="States" stroke="none" stroke-width="1" fill="none" fill-rule="evenodd">
        <g id="credit_mob_blue-copy-5" transform="translate(-175.000000, -1075.000000)" fill="#F03226">
            <g id="logo-alfa" transform="translate(0.000000, 1036.000000)">
                <g id="art_logo_alfa__xs__red" transform="translate(164.000000, 36.000000)">
                    <path d="M11.0159713,39.3806603 C11.0159713,39.1697961 11.2025222,39 11.4334198,39 L37.6014189,39 C37.8307811,39 38.0159713,39.1697961 38.0159713,39.3806603 L38.0159713,43.619686 C38.0159713,43.830893 37.8307811,44 37.6014189,44 L11.4334198,44 C11.2025222,44 11.0159713,43.830893 11.0159713,43.619686 L11.0159713,39.3806603 Z M28.8459522,7.0012016 C29.1618759,7.84755661 36.5225283,27.7036325 36.7433593,28.2995903 C36.8046855,28.4638778 36.7640487,28.738442 36.5041238,28.8358791 C36.2437905,28.9340742 32.4176001,30.3990455 32.2067251,30.4776024 C31.9951082,30.5557802 31.7570111,30.439459 31.6791844,30.2332497 C31.6009847,30.0270443 30.1794247,25.484548 30,25 L19,25 C18.8205753,25.484548 17.1493882,30.0345971 17.0752126,30.2332497 C17.001987,30.4311481 16.7729116,30.5648452 16.5493875,30.4776024 C16.3247327,30.3896054 12.4824265,28.9227429 12.2554632,28.8358791 C12.0352054,28.7543019 11.9341846,28.5073078 12.0127651,28.2995903 C12.2830544,27.5548297 19.5319603,8.01731644 19.9034472,7.0012016 C20.6203961,5.03166504 21.5435913,3 24.3764388,3 C27.2104248,3 28.1014278,4.99956243 28.8459522,7.0012016 Z M20.666592,20.3919828 L28.1014278,20.3919828 L24.4005909,9.48436839 L24.3545834,9.48436839 L20.666592,20.3919828 Z" id="Path"></path>
                </g>
            </g>
        </g>
    </g>
</svg>